<svg width="170" height="72" viewBox="0 0 170 72" fill="none" xmlns="http://www.w3.org/2000/svg">
<g clip-path="url(#clip0_3244_948)">
<path fill-rule="evenodd" clip-rule="evenodd" d="M16.2137 3.94763C25.1681 3.94763 32.4273 11.2067 32.4273 20.1613V3.94763H48.641C57.5955 3.94763 64.8547 11.2067 64.8547 20.1613C64.8547 29.1158 57.5955 36.375 48.641 36.375C57.5955 36.375 64.8547 43.6341 64.8547 52.5886C64.8547 57.0349 63.0648 61.0632 60.1665 63.9923L60.1058 64.0535L60.052 64.107C57.1222 67.0095 53.091 68.8023 48.641 68.8023C44.2213 68.8023 40.2146 67.0339 37.2898 64.166C37.2519 64.1287 37.2139 64.0911 37.1761 64.0535C37.1406 64.018 37.1053 63.9823 37.0701 63.9465C34.1985 61.0212 32.4273 57.0117 32.4273 52.5886C32.4273 61.5431 25.1681 68.8023 16.2137 68.8023C7.2591 68.8023 0 61.5431 0 52.5886V36.375H16.2137C7.2591 36.375 0 29.1158 0 20.1613C0 11.2067 7.2591 3.94763 16.2137 3.94763ZM29.1846 20.1613C29.1846 27.325 23.3773 33.1322 16.2137 33.1322V7.19036C23.3773 7.19036 29.1846 12.9976 29.1846 20.1613ZM61.6119 52.5886C61.6119 45.4249 55.8047 39.6177 48.641 39.6177C41.4773 39.6177 35.6701 45.4249 35.6701 52.5886H61.6119ZM3.24273 39.6177V52.5886C3.24273 59.7523 9.05001 65.5596 16.2137 65.5596C23.3773 65.5596 29.1846 59.7523 29.1846 52.5886V39.6177H3.24273ZM35.6701 33.1322V7.19036H48.641C55.8047 7.19036 61.6119 12.9976 61.6119 20.1613C61.6119 27.325 55.8047 33.1322 48.641 33.1322H35.6701Z" fill="#FFC350"/>
</g>
<path d="M84.0281 7.1768H86.6708V22.777C86.6708 24.1693 86.415 25.3521 85.9035 26.3254C85.392 27.2986 84.671 28.0374 83.7404 28.5418C82.8098 29.0462 81.7122 29.2984 80.4477 29.2984C79.2543 29.2984 78.1922 29.0817 77.2616 28.6484C76.331 28.2079 75.5993 27.5828 75.0665 26.7729C74.5337 25.9631 74.2673 25.0005 74.2673 23.8852H76.8674C76.8674 24.5032 77.0201 25.0431 77.3256 25.5049C77.6381 25.9595 78.0644 26.3147 78.6043 26.5705C79.1442 26.8262 79.7586 26.9541 80.4477 26.9541C81.2078 26.9541 81.8543 26.7942 82.3871 26.4746C82.9199 26.1549 83.3248 25.686 83.6019 25.068C83.886 24.4428 84.0281 23.6792 84.0281 22.777V7.1768ZM110.38 18.0884C110.38 20.3901 109.964 22.3792 109.133 24.0557C108.302 25.7322 107.162 27.0251 105.713 27.9344C104.264 28.8437 102.608 29.2984 100.747 29.2984C98.8859 29.2984 97.2307 28.8437 95.7815 27.9344C94.3323 27.0251 93.1921 25.7322 92.361 24.0557C91.5298 22.3792 91.1142 20.3901 91.1142 18.0884C91.1142 15.7867 91.5298 13.7976 92.361 12.1211C93.1921 10.4446 94.3323 9.15169 95.7815 8.24239C97.2307 7.33308 98.8859 6.87843 100.747 6.87843C102.608 6.87843 104.264 7.33308 105.713 8.24239C107.162 9.15169 108.302 10.4446 109.133 12.1211C109.964 13.7976 110.38 15.7867 110.38 18.0884ZM107.823 18.0884C107.823 16.1988 107.507 14.6039 106.874 13.3039C106.249 12.0039 105.4 11.02 104.328 10.3522C103.262 9.68448 102.068 9.35059 100.747 9.35059C99.4258 9.35059 98.2288 9.68448 97.1561 10.3522C96.0905 11.02 95.2416 12.0039 94.6094 13.3039C93.9842 14.6039 93.6716 16.1988 93.6716 18.0884C93.6716 19.978 93.9842 21.5729 94.6094 22.8729C95.2416 24.1729 96.0905 25.1568 97.1561 25.8246C98.2288 26.4923 99.4258 26.8262 100.747 26.8262C102.068 26.8262 103.262 26.4923 104.328 25.8246C105.4 25.1568 106.249 24.1729 106.874 22.8729C107.507 21.5729 107.823 19.978 107.823 18.0884ZM114.824 29V7.1768H117.466V16.8949H129.102V7.1768H131.745V29H129.102V19.2392H117.466V29H114.824ZM154.341 7.1768V29H151.783L139.891 11.8654H139.678V29H137.036V7.1768H139.593L151.528 24.354H151.741V7.1768H154.341ZM87.6085 48.6326C87.4806 47.5528 86.962 46.7145 86.0527 46.1178C85.1434 45.5211 84.0281 45.2227 82.7068 45.2227C81.7406 45.2227 80.8953 45.379 80.1707 45.6916C79.4532 46.0042 78.892 46.4339 78.4871 46.9809C78.0892 47.5279 77.8903 48.1495 77.8903 48.8457C77.8903 49.4282 78.0288 49.9291 78.3059 50.3482C78.5901 50.7602 78.9524 51.1048 79.3928 51.3818C79.8332 51.6518 80.295 51.8755 80.7781 52.0531C81.2611 52.2236 81.7051 52.3622 82.11 52.4687L84.3265 53.0654C84.8948 53.2146 85.527 53.4206 86.2232 53.6835C86.9265 53.9463 87.5978 54.3051 88.2372 54.7597C88.8836 55.2073 89.4164 55.7827 89.8355 56.486C90.2547 57.1893 90.4642 58.0524 90.4642 59.0753C90.4642 60.2546 90.1552 61.3202 89.5372 62.2721C88.9262 63.224 88.0311 63.9806 86.8519 64.5418C85.6798 65.103 84.2554 65.3836 82.5789 65.3836C81.016 65.3836 79.6627 65.1314 78.519 64.627C77.3824 64.1227 76.4873 63.4194 75.8337 62.5172C75.1873 61.615 74.8214 60.5672 74.7362 59.3737H77.4641C77.5351 60.1978 77.8122 60.8797 78.2952 61.4196C78.7854 61.9524 79.4035 62.3502 80.1494 62.6131C80.9024 62.8688 81.7122 62.9967 82.5789 62.9967C83.5877 62.9967 84.4934 62.8333 85.2961 62.5065C86.0989 62.1726 86.7347 61.7109 87.2035 61.1213C87.6724 60.5245 87.9068 59.8284 87.9068 59.0327C87.9068 58.3081 87.7044 57.7185 87.2994 57.2638C86.8945 56.8092 86.3617 56.4398 85.7011 56.1556C85.0404 55.8715 84.3265 55.6228 83.5592 55.4097L80.874 54.6425C79.169 54.1523 77.8193 53.4526 76.8247 52.5433C75.8302 51.634 75.3329 50.4441 75.3329 48.9736C75.3329 47.7517 75.6632 46.6861 76.3239 45.7768C76.9917 44.8604 77.8868 44.15 79.0092 43.6457C80.1387 43.1342 81.3997 42.8784 82.792 42.8784C84.1986 42.8784 85.4489 43.1306 86.5429 43.635C87.6369 44.1323 88.5036 44.8142 89.1429 45.6809C89.7894 46.5476 90.1304 47.5315 90.1659 48.6326H87.6085ZM94.8092 43.1768H97.9633L105.38 61.2918H105.636L113.052 43.1768H116.206V65H113.734V48.4195H113.521L106.701 65H104.314L97.4944 48.4195H97.2813V65H94.8092V43.1768ZM124.147 43.1768V65H121.505V43.1768H124.147ZM128.253 45.5211V43.1768H144.62V45.5211H137.758V65H135.115V45.5211H128.253ZM148.699 65V43.1768H151.341V52.8949H162.977V43.1768H165.62V65H162.977V55.2392H151.341V65H148.699Z" fill="#FFC350"/>
<defs>
<clipPath id="clip0_3244_948">
<rect width="64.8547" height="64.8547" fill="white" transform="translate(0 3.94763)"/>
</clipPath>
</defs>
</svg>
